# AST/ASF file generated using VICON BodyLanguage
# -----------------------------------------------
:version 1.10
:name VICON
:units
  mass 1.0
  length 0.45
  angle deg
:documentation
   .ast/.asf automatically generated from VICON data using
   VICON BodyBuilder and BodyLanguage model FoxedUp or BRILLIANT.MOD
:root
   order TX TY TZ RX RY RZ
   axis XYZ
   position 0 0 0  
   orientation 0 0 0 
:bonedata
  begin
     id 1 
     name lhipjoint
     direction 0.560651 -0.75055 0.34978 
     length 2.44936 
     axis 0 0 0  XYZ
  end
  begin
     id 2 
     name lfemur
     direction 0.34202 -0.939693 0  
     length 7.42139  
     axis 0 0 20  XYZ
    dof rx ry rz
    limits (-160.0 20.0)
           (-70.0 70.0)
           (-60.0 70.0)
  end
  begin
     id 3 
     name ltibia
     direction 0.34202 -0.939693 0   
     length 7.75674   
     axis 0 0 20   XYZ
    dof rx
    limits (-10.0 170.0)
  end
  begin
     id 4 
     name lfoot
     direction 0.0925879 -0.254383 0.962661   
     length 2.38688   
     axis -90 7.62852e-016 20   XYZ
    dof rx rz
    limits (-45.0 90.0)
           (-70.0 20.0)
  end
  begin
     id 5 
     name ltoes
     direction 1.53567e-011 -4.21973e-011 1   
     length 1.19228   
     axis -90 7.62852e-016 20   XYZ
    dof rx
    limits (-90.0 20.0)
  end
  begin
     id 6 
     name rhipjoint
     direction -0.540087 -0.762838 0.355506   
     length 2.4099  
     axis 0 0 0  XYZ 
  end
  begin
     id 7 
     name rfemur
     direction -0.34202 -0.939693 0   
     length 7.70794   
     axis 0 0 -20   XYZ
    dof rx ry rz
    limits (-160.0 20.0)
           (-70.0 70.0)
           (-70.0 60.0)
  end
  begin
     id 8 
     name rtibia
     direction -0.34202 -0.939693 0   
     length 7.66106   
     axis 0 0 -20   XYZ
    dof rx
    limits (-10.0 170.0)
 end
 begin
     id 9 
     name rfoot
     direction -0.0830975 -0.228308 0.970036   
     length 2.4989  
     axis -90 -7.62852e-016 -20   XYZ
    dof rx rz
    limits (-45.0 90.0)
           (-20.0 70.0)
  end
  begin
     id 10 
     name rtoes
     direction -1.53517e-011 -4.21842e-011 1   
     length 1.2498   
     axis -90 -7.62852e-016 -20   XYZ
    dof rx
    limits (-90.0 20.0)
  end
  begin
     id 11 
     name lowerback
     direction 0.0266356 0.99402 -0.105896   
     length 2.1545   
     axis 0 0 0   XYZ
    dof rx ry rz
    limits (-20.0 45.0)
           (-30.0 30.0)
           (-30.0 30.0)
  end
  begin
     id 12 
     name upperback
     direction 0.0130547 0.999192 0.0380027   
     length 2.1434   
     axis 0 0 0   XYZ
    dof rx ry rz
    limits (-20.0 45.0)
           (-30.0 30.0)
           (-30.0 30.0)
  end
  begin
     id 13 
     name thorax
     direction 0.000590299 0.996288 0.0860764   
     length 2.19049   
     axis 0 0 0   XYZ
    dof rx ry rz
    limits (-20.0 45.0)
           (-30.0 30.0)
           (-30.0 30.0)
  end
  begin
     id 14 
     name lowerneck
     direction -0.0432125 0.978219 0.203028   
     length 1.62441   
     axis 0 0 0   XYZ
    dof rx ry rz
    limits (-20.0 45.0)
           (-30.0 30.0)
           (-30.0 30.0)
  end
  begin
     id 15 
     name upperneck
     direction -0.0192309 0.991699 -0.127138   
     length 1.66666   
     axis 0 0 0   XYZ
    dof rx ry rz
    limits (-20.0 45.0)
           (-30.0 30.0)
           (-30.0 30.0)
  end
  begin
     id 16
     name head
     direction -0.00434499 0.997882 -0.0649107  
     length 1.67142  
     axis 0 0 0   XYZ
    dof rx ry rz
    limits (-20.0 45.0)
           (-30.0 30.0)
           (-30.0 30.0)
  end
  begin
     id 17 
     name lclavicle
     direction 0.970351 0.240904 -0.0196058  
     length 4.04862  
     axis 0 0 0   XYZ
    dof ry rz
    limits (-20.0 10.0)
           (0.0 20.0)
  end
  begin
     id 18 
     name lhumerus
     direction 1 -4.4896e-011 -1.40911e-018   
     length 5.58345   
     axis 180 -30 -90   XYZ
    dof rx ry rz
    limits (-60.0 90.0)
           (-90.0 90.0)
           (-90.0 90.0)
  end
  begin
     id 19
     name lradius
     direction 1 -4.48968e-011 5.88912e-028   
     length 3.71087   
     axis 180 -30 -90   XYZ
    dof rx
    limits (-10.0 170.0)
  end
  begin
     id 20
     name lwrist
     direction 1 -4.48955e-011 -8.83775e-028   
     length 1.85544   
     axis 5.52448e-016 90 90   XYZ
    dof ry
    limits (-180.0 0.0)
 end
  begin
     id 21 
     name lhand
     direction 1 -4.49035e-011 -1.76755e-027   
     length 0.562322   
     axis 1.12785e-015 90 90   XYZ
    dof rx rz
    limits (-90.0 90.0)
           (-45.0 45.0)
  end
  begin
     id 22 
     name lfingers
     direction 1 -4.48824e-011 -3.5351e-027   
     length 0.453359   
     axis 2.2557e-015 90 90   XYZ
    dof rx
    limits (0.0 90.0)
  end
  begin
     id 23
     name lthumb
     direction 0.707107 -6.34888e-011 0.707107   
     length 0.650935   
     axis -90 45 2.85299e-015   XYZ
    dof rx rz
    limits (-45.0 45.0)
           (-45.0 45.0)
  end
  begin
     id 24 
     name rclavicle
     direction -0.96165 0.268562 -0.0557131   
     length 4.05446  
     axis 0 0 0   XYZ 
    dof ry rz
    limits (-10.0 20.0)
           (-20.0 0.0)
  end
  begin
     id 25 
     name rhumerus
     direction -1 -4.48957e-011 -3.36329e-027  
     length 5.20357   
     axis 180 30 90   XYZ
    dof rx ry rz
    limits (-90.0 60.0)
           (-90.0 90.0)
           (-90.0 90.0)
  end
  begin
     id 26 
     name rradius
     direction -1 -4.48974e-011 4.51441e-027   
     length 3.64937   
     axis 180 30 90   XYZ
    dof rx
    limits (-10.0 170.0)
  end
  begin
     id 27 
     name rwrist
     direction -1 -4.4896e-011 -8.83775e-028   
     length 1.82468   
     axis 5.52448e-016 -90 -90   XYZ
    dof ry
    limits (-180.0 0.0)
  end
  begin
     id 28
     name rhand
     direction -1 -4.48996e-011 -1.76755e-027   
     length 0.617996   
     axis 1.12785e-015 -90 -90   XYZ
    dof rx rz
    limits (-90.0 90.0)
           (-45.0 45.0)
  end
  begin
     id 29
     name rfingers
     direction -1 -4.48957e-011 -3.5351e-027   
     length 0.498244   
     axis 2.2557e-015 -90 -90   XYZ
    dof rx
    limits (0.0 90.0)
  end
  begin
     id 30
     name rthumb
     direction -0.707107 -6.34931e-011 0.707107   
     length 0.715382   
     axis -90 -45 -2.85299e-015   XYZ
    dof rx rz
    limits (-45.0 45.0)
           (-45.0 45.0)
  end
:hierarchy
  begin
    root lhipjoint rhipjoint lowerback
    lhipjoint lfemur
    lfemur ltibia
    ltibia lfoot
    lfoot ltoes
    rhipjoint rfemur
    rfemur rtibia
    rtibia rfoot
    rfoot rtoes
    lowerback upperback
    upperback thorax
    thorax lowerneck lclavicle rclavicle
    lowerneck upperneck
    upperneck head
    lclavicle lhumerus
    lhumerus lradius
    lradius lwrist
    lwrist lhand lthumb
    lhand lfingers
    rclavicle rhumerus
    rhumerus rradius
    rradius rwrist
    rwrist rhand rthumb
    rhand rfingers
  end

#!OML:ASF H:\ManfredETheater\Project 1\Capture day 2\Session 1\Male1.ASF
:FULLY-SPECIFIED
:DEGREES
159
root -7.10822 2.0741 -13.2628 119.934 -43.0988 154.411
lowerback 17.2095 -3.04839 14.9829
upperback 12.4045 -4.01421 3.50334
thorax 3.57239 -2.08691 -4.06557
lowerneck -11.1847 4.58947 -1.3469
upperneck 29.802 7.9778 -7.08389
head 11.8837 1.93532 -1.47136
rclavicle -8.90555e-014 4.77083e-014
rhumerus -9.4634 5.47821 -61.7192
rradius 60.4431
rwrist 29.0152
rhand -34.2823 -8.72447
rfingers 7.12502
rthumb -7.45203 -398.573
lclavicle -8.90555e-014 4.77083e-014
lhumerus 22.5564 9.27436 47.1888
lradius 72.4322
lwrist -11.1971
lhand -32.5601 13.3865
lfingers 7.12502
lthumb -5.78954 43.2874
rfemur -81.3463 -18.3571 47.0354
rtibia 116.066
rfoot -6.16066 -14.7128
rtoes -7.82253
lfemur -72.8511 41.9691 -3.04672
ltibia 112.463
lfoot 22.3661 -10.5313
ltoes 0.693694
160
root -7.22659 2.12879 -13.404 122.82 -40.7441 153.882
lowerback 17.0816 -3.19015 16.4072
upperback 11.9943 -4.00428 3.72078
thorax 3.19633 -2.04122 -4.59186
lowerneck -11.024 4.90952 -0.958766
upperneck 29.7532 8.54894 -7.91237
head 11.9223 2.1133 -1.7778
rclavicle -2.22639e-014 -2.8625e-014
rhumerus -10.7172 5.55515 -62.2551
rradius 59.9316
rwrist 30.6261
rhand -34.4184 -9.57994
rfingers 7.12502
rthumb -7.58341 -399.424
lclavicle -2.22639e-014 -2.8625e-014
lhumerus 21.9579 8.4324 46.3846
lradius 72.08
lwrist -11.5257
lhand -31.5592 12.7341
lfingers 7.12502
lthumb -4.82307 42.6592
rfemur -81.3533 -17.6281 49.4922
rtibia 115.252
rfoot -6.81781 -13.811
rtoes -8.76943
lfemur -74.0414 41.2258 -1.3485
ltibia 112.098
lfoot 21.7233 -11.0125
ltoes -0.687145
161
root -7.34864 2.18512 -13.533 125.573 -38.917 152.845
lowerback 17.5355 -3.29613 17.0175
upperback 11.7152 -3.95258 3.75023
thorax 2.66116 -2.03701 -4.86028
lowerneck -10.8847 5.18958 -0.548643
upperneck 29.6692 9.02507 -8.61353
head 11.9472 2.27516 -2.05117
rclavicle 5.08889e-014 7.63333e-014
rhumerus -11.568 5.57085 -62.5848
rradius 59.0721
rwrist 31.9506
rhand -34.2833 -10.8764
rfingers 7.12502
rthumb -7.45299 -400.725
lclavicle 5.08889e-014 7.63333e-014
lhumerus 21.2987 7.64944 45.6313
lradius 72.1085
lwrist -11.9297
lhand -30.3873 12.1764
lfingers 7.12502
lthumb -3.69148 42.1241
rfemur -81.192 -17.4675 51.2197
rtibia 114.816
rfoot -7.49044 -11.909
rtoes -9.70371
lfemur -74.4076 40.3882 0.0383117
ltibia 111.721
lfoot 21.1096 -12.0503
ltoes -2.61466
162
root -7.47668 2.24498 -13.6536 128.11 -37.2238 151.688
lowerback 18.3049 -3.383 17.3065
upperback 11.5394 -3.87361 3.70362
thorax 2.08365 -2.04451 -5.03049
lowerneck -10.7906 5.39022 -0.130484
upperneck 29.527 9.34646 -9.16279
head 11.9449 2.39928 -2.2858
rclavicle 9.54166e-014 -1.11319e-013
rhumerus -12.0797 5.48305 -62.7135
rradius 58.0203
rwrist 33.1877
rhand -33.6814 -12.5126
rfingers 7.12502
rthumb -6.872 -402.381
lclavicle 9.54166e-014 -1.11319e-013
lhumerus 20.7412 6.91998 44.9558
lradius 72.4112
lwrist -12.3842
lhand -29.1324 11.7772
lfingers 7.12502
lthumb -2.47962 41.7425
rfemur -80.9929 -17.704 52.7584
rtibia 114.707
rfoot -8.5857 -9.83987
rtoes -10.7267
lfemur -74.3796 39.5658 1.41483
ltibia 111.415
lfoot 20.3594 -13.7755
ltoes -5.14275
163
root -7.60758 2.30859 -13.7678 130.578 -35.6806 150.465
lowerback 19.1806 -3.42414 17.2688
upperback 11.4342 -3.76935 3.59044
thorax 1.53415 -2.05124 -5.10133
lowerneck -10.7622 5.49452 0.265048
upperneck 29.3104 9.48688 -9.52531
head 11.9039 2.477 -2.46509
rclavicle -3.18055e-015 9.22361e-014
rhumerus -12.376 5.30682 -62.6654
rradius 57.0134
rwrist 34.4222
rhand -32.6226 -14.2635
rfingers 7.12502
rthumb -5.84987 -404.163
lclavicle -3.18055e-015 9.22361e-014
lhumerus 20.4122 6.24401 44.3608
lradius 72.8734
lwrist -12.8426
lhand -27.9176 11.5281
lfingers 7.12502
lthumb -1.30628 41.5038
rfemur -80.9862 -18.2351 54.1341
rtibia 114.908
rfoot -10.0799 -8.10384
rtoes -11.6525
lfemur -74.3013 38.7448 2.55684
ltibia 111.215
lfoot 19.3271 -15.9868
ltoes -8.2097
164
root -7.73701 2.37581 -13.8789 132.911 -34.1483 149.316
lowerback 20.1272 -3.40916 17.0486
upperback 11.4044 -3.62989 3.46441
thorax 1.04496 -2.04563 -5.09696
lowerneck -10.8054 5.50774 0.618979
upperneck 28.9931 9.46021 -9.70968
head 11.813 2.51238 -2.58597
rclavicle 9.54166e-015 -1.20861e-013
rhumerus -12.5913 5.08971 -62.4578
rradius 56.28
rwrist 35.609
rhand -31.3092 -15.8567
rfingers 7.12502
rthumb -4.5817 -405.787
lclavicle 9.54166e-015 -1.20861e-013
lhumerus 20.4039 5.61515 43.8107
lradius 73.3911
lwrist -13.2226
lhand -26.8932 11.4102
lfingers 7.12502
lthumb -0.316968 41.3897
rfemur -81.114 -18.9665 55.4946
rtibia 115.341
rfoot -11.4006 -5.592
rtoes -12.3072
lfemur -74.2694 38.0353 3.62145
ltibia 111.146
lfoot 18.0838 -18.4718
ltoes -11.4771
165
root -7.86108 2.4463 -13.9886 135.104 -32.5413 148.384
lowerback 21.1111 -3.33785 16.7736
upperback 11.4246 -3.44414 3.37565
thorax 0.611146 -2.01918 -5.03569
lowerneck -10.9492 5.44718 0.924339
upperneck 28.5865 9.30735 -9.75731
head 11.6876 2.51342 -2.65765
rclavicle 6.67916e-014 1.78111e-013
rhumerus -12.867 4.83382 -62.112
rradius 56.0048
rwrist 36.7267
rhand -30.0902 -17.0862
rfingers 7.12502
rthumb -3.40453 -407.039
lclavicle 6.67916e-014 1.78111e-013
lhumerus 20.7537 5.02364 43.259
lradius 73.8907
lwrist -13.4182
lhand -26.2031 11.3939
lfingers 7.12502
lthumb 0.349547 41.3733
rfemur -81.3713 -19.7862 56.9692
rtibia 115.926
rfoot -13.2299 -5.80197
rtoes -13.1114
lfemur -74.4281 37.512 4.68433
ltibia 111.203
lfoot 16.8336 -20.9893
ltoes -14.616
